<svg width="469" height="420" viewBox="0 0 469 420" fill="none" xmlns="http://www.w3.org/2000/svg">
<path d="M462.572 158.704H462.408L368.337 198.873L239.628 253.833C239.125 254.044 238.586 254.155 238.04 254.158C237.495 254.16 236.954 254.056 236.449 253.849L103.659 198.758L7.27666 158.77L7.12944 158.704H6.96536C5.44459 158.706 3.98661 159.311 2.91127 160.386C1.83593 161.462 1.23106 162.92 1.22937 164.44V413.549C1.23107 415.07 1.83593 416.528 2.91127 417.603C3.98661 418.679 5.4446 419.284 6.96536 419.285H462.572C464.093 419.284 465.551 418.679 466.627 417.603C467.702 416.528 468.307 415.07 468.308 413.549V164.44C468.307 162.92 467.702 161.462 466.627 160.386C465.551 159.311 464.093 158.706 462.572 158.704Z" fill="white"/>
<path d="M462.981 160.343C462.814 160.343 462.651 160.292 462.514 160.196L235.891 2.36985C235.201 1.89178 234.382 1.63629 233.543 1.63772C232.703 1.63915 231.885 1.89743 231.197 2.37785L6.2066 160.195C6.02863 160.319 5.80852 160.368 5.59463 160.33C5.38074 160.293 5.19055 160.172 5.06584 159.994C4.94112 159.816 4.89208 159.596 4.92949 159.382C4.96689 159.168 5.08767 158.978 5.26532 158.853L230.256 1.03591C231.219 0.363441 232.365 0.00193844 233.54 7.77385e-06C234.715 -0.0019229 235.862 0.355807 236.828 1.02511L463.45 158.851C463.593 158.951 463.701 159.094 463.757 159.259C463.814 159.424 463.816 159.603 463.764 159.769C463.711 159.936 463.607 160.081 463.466 160.184C463.326 160.288 463.156 160.343 462.981 160.343Z" fill="#0094F0"/>
<path d="M19.063 165.938L233.765 6.81699L450.097 177.26L244.827 298.946L133.384 273.544L19.063 165.938Z" fill="#E6E6E6"/>
<path d="M142.791 374.107H36.7232C36.0719 374.109 35.4266 373.982 34.8242 373.734C34.2218 373.487 33.6742 373.122 33.2127 372.663C32.7511 372.203 32.3847 371.657 32.1343 371.056C31.884 370.455 31.7546 369.81 31.7537 369.159C31.7527 368.507 31.8802 367.862 32.1287 367.26C32.3773 366.658 32.7421 366.111 33.2023 365.65C33.6625 365.189 34.209 364.824 34.8107 364.574C35.4123 364.324 36.0572 364.196 36.7086 364.196H142.791C143.443 364.194 144.088 364.321 144.69 364.568C145.293 364.816 145.84 365.18 146.302 365.64C146.763 366.099 147.13 366.645 147.38 367.247C147.631 367.848 147.76 368.493 147.761 369.144C147.762 369.795 147.634 370.44 147.386 371.043C147.137 371.645 146.772 372.192 146.312 372.653C145.852 373.114 145.306 373.479 144.704 373.729C144.102 373.978 143.457 374.107 142.806 374.107H142.791Z" fill="#0094F0"/>
<path d="M74.778 352.801H36.7231C36.0718 352.803 35.4265 352.677 34.8241 352.429C34.2218 352.181 33.6741 351.817 33.2126 351.358C32.751 350.898 32.3846 350.352 32.1343 349.751C31.8839 349.149 31.7546 348.505 31.7536 347.853C31.7526 347.202 31.8801 346.557 32.1287 345.955C32.3772 345.353 32.7421 344.806 33.2022 344.345C33.6624 343.884 34.209 343.518 34.8106 343.269C35.4123 343.019 36.0572 342.891 36.7085 342.891H74.778C76.0912 342.89 77.3506 343.411 78.2799 344.339C79.2091 345.267 79.7322 346.526 79.7341 347.839C79.7361 349.152 79.2168 350.412 78.2903 351.342C77.3638 352.273 76.1059 352.798 74.7928 352.801H74.778Z" fill="#0094F0"/>
<path d="M236.785 254.566C235.978 254.567 235.18 254.41 234.434 254.105L102.02 199.163V27.1845C102.022 25.6638 102.627 24.2058 103.702 23.1305C104.777 22.0551 106.235 21.4502 107.756 21.4484H361.782C363.302 21.4502 364.76 22.0551 365.836 23.1305C366.911 24.2058 367.516 25.6638 367.518 27.1845V199.283L367.269 199.39L239.207 254.079C238.44 254.401 237.616 254.567 236.785 254.566Z" fill="#0094F0"/>
<path d="M461.343 158.704H461.179L367.108 198.873L238.399 253.833C237.896 254.044 237.356 254.155 236.811 254.158C236.265 254.16 235.724 254.056 235.219 253.849L102.43 198.758L6.04738 158.77L5.90016 158.704H5.73599C4.21522 158.706 2.75724 159.311 1.6819 160.386C0.60656 161.462 0.0016913 162.92 0 164.44V413.549C0.0016913 415.07 0.60656 416.528 1.6819 417.603C2.75724 418.679 4.21522 419.284 5.73599 419.285H461.343C462.864 419.284 464.322 418.679 465.397 417.603C466.473 416.528 467.077 415.07 467.079 413.549V164.44C467.077 162.92 466.473 161.462 465.397 160.386C464.322 159.311 462.864 158.706 461.343 158.704ZM465.44 413.549C465.44 414.636 465.008 415.678 464.24 416.446C463.472 417.214 462.43 417.646 461.343 417.646H5.73599C4.64948 417.646 3.60759 417.214 2.83931 416.446C2.07103 415.678 1.63921 414.636 1.63878 413.549V164.44C1.64026 163.381 2.05125 162.363 2.78581 161.599C3.52038 160.836 4.52165 160.386 5.58034 160.343L102.43 200.528L234.589 255.365C236.019 255.947 237.622 255.938 239.046 255.341L367.108 200.651L461.507 160.343C462.564 160.389 463.563 160.84 464.295 161.603C465.028 162.366 465.438 163.383 465.44 164.44L465.44 413.549Z" fill="#0094F0"/>
<path d="M216.17 85.7346H126.032C124.295 85.7316 122.631 85.0396 121.404 83.8105C120.177 82.5814 119.488 80.9157 119.488 79.1791C119.488 77.4424 120.177 75.7768 121.404 74.5477C122.631 73.3186 124.295 72.6266 126.032 72.6236H216.17C217.907 72.6266 219.571 73.3186 220.798 74.5477C222.025 75.7768 222.714 77.4424 222.714 79.1791C222.714 80.9157 222.025 82.5814 220.798 83.8105C219.571 85.0396 217.907 85.7316 216.17 85.7346Z" fill="white"/>
<path d="M169.462 57.8737H126.032C124.293 57.8737 122.626 57.183 121.397 55.9536C120.167 54.7242 119.477 53.0568 119.477 51.3182C119.477 49.5796 120.167 47.9121 121.397 46.6828C122.626 45.4534 124.293 44.7627 126.032 44.7627H169.462C171.201 44.7627 172.868 45.4534 174.098 46.6828C175.327 47.9121 176.018 49.5796 176.018 51.3182C176.018 53.0568 175.327 54.7242 174.098 55.9536C172.868 57.183 171.201 57.8737 169.462 57.8737Z" fill="white"/>
<path d="M302.185 151.29H164.52C162.781 151.29 161.114 150.599 159.884 149.369C158.655 148.14 157.964 146.473 157.964 144.734C157.964 142.995 158.655 141.328 159.884 140.099C161.114 138.869 162.781 138.179 164.52 138.179H302.185C303.924 138.179 305.591 138.869 306.821 140.099C308.05 141.328 308.741 142.995 308.741 144.734C308.741 146.473 308.05 148.14 306.821 149.369C305.591 150.599 303.924 151.29 302.185 151.29Z" fill="white"/>
<path d="M302.185 181.609H164.52C163.658 181.61 162.804 181.442 162.008 181.113C161.211 180.784 160.487 180.302 159.877 179.693C159.267 179.084 158.783 178.361 158.453 177.565C158.123 176.768 157.953 175.915 157.953 175.053C157.953 174.191 158.123 173.338 158.453 172.542C158.783 171.746 159.267 171.023 159.877 170.414C160.487 169.805 161.211 169.322 162.008 168.993C162.804 168.665 163.658 168.496 164.52 168.498H302.185C303.047 168.496 303.901 168.665 304.698 168.993C305.494 169.322 306.218 169.805 306.828 170.414C307.438 171.023 307.922 171.746 308.252 172.542C308.582 173.338 308.752 174.191 308.752 175.053C308.752 175.915 308.582 176.768 308.252 177.565C307.922 178.361 307.438 179.084 306.828 179.693C306.218 180.302 305.494 180.784 304.698 181.113C303.901 181.442 303.047 181.61 302.185 181.609Z" fill="white"/>
</svg>
